<svg width="50" height="50" viewBox="0 0 50 50" fill="none" xmlns="http://www.w3.org/2000/svg">
<path d="M24.9999 8.33337C26.1505 8.33337 27.0832 9.26611 27.0832 10.4167V22.9167H39.5832C40.7338 22.9167 41.6666 23.8495 41.6666 25.0001C41.6666 26.1506 40.7338 27.0834 39.5832 27.0834H27.0832V39.5834C27.0832 40.734 26.1505 41.6667 24.9999 41.6667C23.8493 41.6667 22.9166 40.734 22.9166 39.5834V27.0834H10.4166C9.26599 27.0834 8.33325 26.1506 8.33325 25.0001C8.33325 23.8495 9.26599 22.9167 10.4166 22.9167H22.9166V10.4167C22.9166 9.26611 23.8493 8.33337 24.9999 8.33337Z" fill="#E7E7E7"/>
</svg>
